<svg id="Layer_1" data-name="Layer 1" xmlns="http://www.w3.org/2000/svg" viewBox="0 0 892.4348 920.3478"><defs><style>.cls-1{fill:#fbd48b;}</style></defs><path class="cls-1" d="M227.051,777.8544a64.3987,64.3987,0,0,1,7.02.4,30.4308,30.4308,0,0,1,6.79,1.5,14.1714,14.1714,0,0,1,5.12,2.99,6.2986,6.2986,0,0,1,2.01,4.77,12.251,12.251,0,0,1-.92,4.66,24.1688,24.1688,0,0,1-2.3,4.31,38.5432,38.5432,0,0,1-2.93,3.85c-1.04,1.19-1.98,2.24-2.82,3.16a122.4512,122.4512,0,0,1-10.35,10.06q-5.415,4.665-10.93,9.37-6.9,5.76-13.92,11.1-7.02,5.355-14.49,10.29a3.9605,3.9605,0,0,0-.63.52,2.7066,2.7066,0,0,0-.52.86c2.07-.38,4.37-.77,6.9-1.15a51.0322,51.0322,0,0,1,7.59-.57,25.4973,25.4973,0,0,1,5.18.52,14.3709,14.3709,0,0,1,4.49,1.67,9.8645,9.8645,0,0,1,3.16,2.88,7.0016,7.0016,0,0,1,1.21,4.14,12.5028,12.5028,0,0,1-1.32,5.41,17.1237,17.1237,0,0,1-3.28,4.72,50.8292,50.8292,0,0,1-9.95,8.05,82.7348,82.7348,0,0,1-12.19,6.27,119.9128,119.9128,0,0,1-13.46,4.66,134.9638,134.9638,0,0,1-13.74,3.11,7.3619,7.3619,0,0,1-1.73.23h-1.73a27.1121,27.1121,0,0,1-3.22-.23,16.8758,16.8758,0,0,1-3.39-.75,8.52,8.52,0,0,1-2.65-1.38,2.707,2.707,0,0,1-1.09-2.24,2.4967,2.4967,0,0,1,1.09-2.3,4.33,4.33,0,0,1,2.36-.69,4.7913,4.7913,0,0,1,1.09.12,5.95,5.95,0,0,1,1.09.35,13.0092,13.0092,0,0,0,3.22.92,23.2452,23.2452,0,0,0,3.22.23h1.27a6.2911,6.2911,0,0,0,1.27-.12,86.0438,86.0438,0,0,0,12.59-2.13,83.4323,83.4323,0,0,0,12.36-4.03,78.4546,78.4546,0,0,0,11.27-5.75,48.2568,48.2568,0,0,0,9.2-7.3,18.55,18.55,0,0,0,2.36-3.28,7.6356,7.6356,0,0,0,1.09-3.85,4.0185,4.0185,0,0,0-1.09-2.88,7.9379,7.9379,0,0,0-2.82-1.84,16.1578,16.1578,0,0,0-3.74-.98,26.8308,26.8308,0,0,0-3.74-.29,40.78,40.78,0,0,0-8.8.98q-4.425.975-8.45,1.67a12.7122,12.7122,0,0,0-5.52,2.19c-1.46,1.07-2.3,2.84-2.53,5.29a7.3478,7.3478,0,0,1-.69,2.13,1.7674,1.7674,0,0,1-1.61,1.21c-.84,0-1.27-.73-1.27-2.19a23.44,23.44,0,0,1,.98-5.69c.65-2.41,1.5-5.06,2.53-7.94s2.17-5.85,3.39-8.91c1.23-3.07,2.4-5.88,3.51-8.45s2.09-4.79,2.93-6.67,1.38-3.09,1.61-3.62q2.295-4.83,4.83-9.43,2.535-4.605,5.18-9.2a8.5852,8.5852,0,0,1,1.84-2.19,4.3648,4.3648,0,0,1,2.99-1.26,2.4153,2.4153,0,0,1,1.67.69,2.1306,2.1306,0,0,1,.75,1.61,3.8984,3.8984,0,0,1-.81,2.36,16.53,16.53,0,0,1-1.38,1.67,46.7062,46.7062,0,0,0-6.1,8.68q-3.105,5.46-5.87,11.5-2.76,6.045-5.06,11.96-2.295,5.925-3.68,9.95a5.77,5.77,0,0,0-.35.86,1.4775,1.4775,0,0,0,.12.98,1.1976,1.1976,0,0,0,.75-.23c.19-.15.4-.31.63-.46q11.04-8.16,21.74-16.45,10.695-8.28,20.93-17.37,3.57-3.225,7.02-6.56a77.5066,77.5066,0,0,0,6.44-7.02q1.38-1.725,3.16-4.37a9.3955,9.3955,0,0,0,1.78-5.29,3.1137,3.1137,0,0,0-1.72-2.76,13.37,13.37,0,0,0-4.2-1.55,36.694,36.694,0,0,0-5.12-.69c-1.76-.11-3.22-.17-4.37-.17a81.714,81.714,0,0,0-20.7,2.7,119.8253,119.8253,0,0,0-20.24,7.3,153.6765,153.6765,0,0,0-18.98,10.52,175.6933,175.6933,0,0,0-16.79,12.36,32.2542,32.2542,0,0,0-4.6,4.6,51.6131,51.6131,0,0,0-3.8,5.29c-.38.54-.88,1.17-1.5,1.9a2.7631,2.7631,0,0,1-2.19,1.09,2.2444,2.2444,0,0,1-1.84-.86,2.8171,2.8171,0,0,1-.69-1.78,5.7086,5.7086,0,0,1,.92-2.82,22.1009,22.1009,0,0,1,2.07-2.93,23.294,23.294,0,0,1,2.3-2.41c.77-.69,1.3-1.19,1.61-1.5a171.3876,171.3876,0,0,1,17.77-14.09,161.0793,161.0793,0,0,1,20.65-12.19,129.4208,129.4208,0,0,1,22.2-8.57A82.2787,82.2787,0,0,1,227.051,777.8544Z"/><path class="cls-1" d="M232.681,857.3244a2.51,2.51,0,0,0,1.21,2.47,5.9864,5.9864,0,0,0,2.82.63,14.4711,14.4711,0,0,0,4.49-.75,35.0827,35.0827,0,0,0,4.54-1.84,33.7647,33.7647,0,0,0,4.26-2.47q2.01-1.38,3.74-2.53c.23-.23.63-.61,1.21-1.15s1.19-1.09,1.84-1.67a19.6951,19.6951,0,0,1,1.9-1.5,2.9786,2.9786,0,0,1,1.61-.63c.54,0,.8.23.8.69a2.224,2.224,0,0,1-.29,1.09,3.5133,3.5133,0,0,1-.52.75,76.5583,76.5583,0,0,1-9.78,7.71,42.2166,42.2166,0,0,1-11.27,5.18,12.1986,12.1986,0,0,1-3.33.57,7.8443,7.8443,0,0,1-5.46-1.9,6.5036,6.5036,0,0,1-2.13-5.12,13.43,13.43,0,0,1,2.53-8.17,22.0652,22.0652,0,0,1,5.98-5.64,9.77,9.77,0,0,1,1.44-.69,4.7711,4.7711,0,0,1,1.78-.34,3.1347,3.1347,0,0,1,2.19.86,2.8151,2.8151,0,0,1,.92,2.13,3.0231,3.0231,0,0,1-.11.75c-.08.27-.15.52-.23.75a13.0164,13.0164,0,0,1-3.34,5.41,17.8132,17.8132,0,0,1-5.18,3.68c-.38.23-.75.44-1.09.63A1.1627,1.1627,0,0,0,232.681,857.3244Zm5.3-9.66a19.8751,19.8751,0,0,0-2.13,1.95,6.4007,6.4007,0,0,0-1.44,2.88,15.935,15.935,0,0,0,2.53-2.41A8.2408,8.2408,0,0,0,237.981,847.6644Z"/><path class="cls-1" d="M242.801,902.8744a8.013,8.013,0,0,1,1.04-3.45,47.4708,47.4708,0,0,1,2.59-4.49q1.56-2.4149,3.51-4.95c1.3-1.69,2.59-3.28,3.85-4.77,1.27-1.5,2.43-2.86,3.51-4.08,1.07-1.23,1.92-2.15,2.53-2.76q2.64-2.76,5.18-5.69a21.3859,21.3859,0,0,0,3.91-6.73c.77-2.15,1.51-4.27,2.24-6.38s1.4-4.27,2.01-6.5a3.8233,3.8233,0,0,0,.23-1.03,1.86,1.86,0,0,0-.23-.69,4.8822,4.8822,0,0,0-1.55,1.21c-.42.5-.83.98-1.21,1.44-1.53,1.69-3.13,3.43-4.77,5.23a18.0107,18.0107,0,0,1-5.69,4.2,4.0662,4.0662,0,0,1-1.61.35,3.2,3.2,0,0,1-2.76-1.5,5.93,5.93,0,0,1-1.04-3.45,16.05,16.05,0,0,1,1.44-6.73,28.6279,28.6279,0,0,1,3.39-5.69,9.4445,9.4445,0,0,1,1.27-1.26,2.613,2.613,0,0,1,1.73-.69,2.1305,2.1305,0,0,1,1.61.75,2.29,2.29,0,0,1,.69,1.55,2.9539,2.9539,0,0,1-.63,1.78c-.42.57-.79,1.09-1.09,1.55a22.7978,22.7978,0,0,0-2.36,4.26,16.6064,16.6064,0,0,0-1.21,5.06,27.5873,27.5873,0,0,0,7.53-5.46q3.1649-3.285,6.27-6.61a2.9526,2.9526,0,0,1,2.19-1.15,2.2908,2.2908,0,0,1,2.01,1.15,5.3869,5.3869,0,0,1,.75,2.99,15.83,15.83,0,0,1-.23,2.53,26.39,26.39,0,0,1-.58,2.7c-.23.88-.46,1.71-.69,2.47a14.3371,14.3371,0,0,0-.46,1.96h.23q6.09-5.985,12.31-11.62a1.5527,1.5527,0,0,1,1.15-.46.8158.8158,0,0,1,.92.92,1.76,1.76,0,0,1-.58,1.27q-2.76,2.655-5.58,5.35-2.82,2.7-5.41,5.58a73.2563,73.2563,0,0,0-4.89,6.04,35.1187,35.1187,0,0,0-3.91,6.96c-.38,1-1.07,2.47-2.07,4.43s-2.15,4.14-3.45,6.56c-1.31,2.42-2.74,4.89-4.31,7.42s-3.16,4.85-4.77,6.96a32.2518,32.2518,0,0,1-4.83,5.18,7.2671,7.2671,0,0,1-4.49,2.01,3.702,3.702,0,0,1-2.53-1.03A3.556,3.556,0,0,1,242.801,902.8744Zm3.23-1.04a14.504,14.504,0,0,0,4.49-3.45,50.0085,50.0085,0,0,0,4.83-5.92,59.4385,59.4385,0,0,0,4.08-6.73,22.2849,22.2849,0,0,0,2.24-5.87c-1.53,1.76-3.07,3.51-4.6,5.23-1.54,1.72-2.99,3.47-4.37,5.23a57.3668,57.3668,0,0,0-3.8,5.46A32.6094,32.6094,0,0,0,246.031,901.8345Z"/><path class="cls-1" d="M281.451,859.2844a14.5289,14.5289,0,0,1,.92-4.43,29.4479,29.4479,0,0,1,2.47-5.35,21.2085,21.2085,0,0,1,3.51-4.54,5.8255,5.8255,0,0,1,4.03-1.9q2.07,0,4.95,3.57,3.45,4.485,8.05,4.49a10.6933,10.6933,0,0,0,3.57-.57,6.3662,6.3662,0,0,0,1.32-.58c.58-.31,1.19-.61,1.84-.92s1.28-.58,1.9-.81a4.6542,4.6542,0,0,1,1.61-.34c.61,0,.92.23.92.69,0,.69-.52,1.38-1.55,2.07a22.0378,22.0378,0,0,1-3.57,1.9,33.5216,33.5216,0,0,1-4.03,1.44,11.9632,11.9632,0,0,1-3.05.58,11.554,11.554,0,0,1-3.97-.69q-1.905-.69-3.51-1.38c-.46,1.08-1.02,2.26-1.67,3.57a22.9213,22.9213,0,0,1-2.3,3.68,14.2858,14.2858,0,0,1-2.99,2.93,6.1928,6.1928,0,0,1-3.74,1.21,4.4844,4.4844,0,0,1-3.39-1.38A4.5867,4.5867,0,0,1,281.451,859.2844Zm5.06.23a7.3551,7.3551,0,0,0,3.39-2.36,22.7317,22.7317,0,0,0,2.13-3.28c.38-.69.75-1.38,1.09-2.07a5.117,5.117,0,0,0,.52-2.3,2.9793,2.9793,0,0,0-.12-.86c-.08-.27-.19-.59-.34-.98a10.2556,10.2556,0,0,0-2.47,1.95,14.1484,14.1484,0,0,0-2.13,2.88,18.3648,18.3648,0,0,0-1.5,3.45A12.0719,12.0719,0,0,0,286.511,859.5144Z"/><path class="cls-1" d="M318.371,842.2644a2.1322,2.1322,0,0,1,1.73.69,2.3194,2.3194,0,0,1,.58,1.5,3.9831,3.9831,0,0,1-.58,1.96c-.38.69-.73,1.31-1.04,1.84q-1.26,1.965-2.36,4.03a32.38,32.38,0,0,0-1.9,4.37,49.4345,49.4345,0,0,0,5.18-4.2q2.415-2.25,4.95-4.54c.61-.54,1.27-1.13,1.96-1.78a3.1723,3.1723,0,0,1,2.19-.98,2.4679,2.4679,0,0,1,1.96.8,6.031,6.031,0,0,1,1.09,2.01,13.754,13.754,0,0,1,.58,2.65,21.7333,21.7333,0,0,1,.17,2.7,1.8547,1.8547,0,0,0,.81,1.55,3.3429,3.3429,0,0,0,1.72.4,16.0719,16.0719,0,0,0,4.03-.57,31.384,31.384,0,0,0,4.37-1.5c1.46-.61,2.86-1.27,4.2-1.96a23.9581,23.9581,0,0,0,3.39-2.07c.46-.31.92-.59,1.38-.86a3.1283,3.1283,0,0,1,1.61-.4c.69,0,1.03.27,1.03.81a2.0812,2.0812,0,0,1-.92,1.72,52.0975,52.0975,0,0,1-8.74,5.92,32.3913,32.3913,0,0,1-10.12,3.39,5.3622,5.3622,0,0,1-1.27.11,6.4284,6.4284,0,0,1-3.45-.8,5.1316,5.1316,0,0,1-1.9-2.13,9.2656,9.2656,0,0,1-.8-3.16c-.12-1.23-.25-2.53-.4-3.91a2.3428,2.3428,0,0,0-1.55.52,15.6586,15.6586,0,0,0-1.21,1.09c-.38.39-.73.73-1.04,1.03a11.7258,11.7258,0,0,1-1.03.92l-4.26,4.14a11.9268,11.9268,0,0,0-1.03.92l-1.03,1.03c-.62.62-1.4,1.34-2.36,2.19a4.5731,4.5731,0,0,1-3.05,1.27,1.98,1.98,0,0,1-1.84-.98,4.8531,4.8531,0,0,1-.58-2.47,10.6625,10.6625,0,0,1,.86-3.79c.58-1.46,1.25-2.95,2.01-4.49q1.155-2.2951,2.41-4.43,1.26-2.13,2.07-3.39A2.3423,2.3423,0,0,1,318.371,842.2644Z"/><path class="cls-1" d="M394.741,847.8944a.84.84,0,0,1,.63.34,1.0163,1.0163,0,0,1,.29.57,1.5638,1.5638,0,0,1-.34.92c-.23.31-.42.57-.58.81-1.31,1.69-3.01,3.82-5.12,6.38a84.9907,84.9907,0,0,1-6.96,7.48,56.5444,56.5444,0,0,1-7.82,6.27,14.1388,14.1388,0,0,1-7.71,2.65,4.6558,4.6558,0,0,1-3.91-2.01,9.3732,9.3732,0,0,1-1.5-5.69,18.7492,18.7492,0,0,1,1.21-6.67c.81-2.15,1.55-4.1,2.24-5.87.15-.38.33-.79.52-1.21a3.7612,3.7612,0,0,0,.29-1.55q-2.76,2.88-5.46,5.41-2.7,2.535-5.46,4.95c-.69.62-1.51,1.32-2.47,2.13a4.7816,4.7816,0,0,1-3.16,1.21,2.355,2.355,0,0,1-2.01-1.03,4.0127,4.0127,0,0,1-.75-2.41,5.9606,5.9606,0,0,1,.11-1.27,29.649,29.649,0,0,1,11.16-16.56,7.7747,7.7747,0,0,1,4.14-1.84q1.725,0,4.49,2.07a2.1386,2.1386,0,0,0,.58.23,2.604,2.604,0,0,0,1.73-.92,13.3214,13.3214,0,0,0,1.72-2.13,25.6451,25.6451,0,0,0,1.44-2.42c.42-.81.71-1.36.86-1.67a157.879,157.879,0,0,1,7.76-16.39q4.32-7.875,9.03-15.81c.31-.46.71-1.07,1.21-1.84a22.8983,22.8983,0,0,1,1.72-2.3,13.5693,13.5693,0,0,1,2.01-1.95,3.2352,3.2352,0,0,1,1.96-.81,2.4123,2.4123,0,0,1,1.84.92,2.8061,2.8061,0,0,1,.8,1.84,5.2885,5.2885,0,0,1-.52,2.19c-.34.77-.67,1.46-.98,2.07a161.4394,161.4394,0,0,1-7.94,16.16q-4.38,7.77-9.55,15.36c-1.07,1.61-2.42,3.78-4.03,6.5s-3.16,5.6-4.66,8.63a87.37,87.37,0,0,0-3.85,8.97,22.6275,22.6275,0,0,0-1.61,7.42,3.7871,3.7871,0,0,0,.46,2.01,1.8647,1.8647,0,0,0,1.73.75q2.76,0,6.44-2.47a58.9487,58.9487,0,0,0,7.25-5.81q3.57-3.33,6.67-6.73,3.105-3.39,4.6-5.35a8.2071,8.2071,0,0,0,.63-.98A.9234.9234,0,0,1,394.741,847.8944Zm-33.35-1.61a23.3619,23.3619,0,0,0-8.51,10.81l.23.12c.38-.31,1.15-.96,2.3-1.96s2.36-2.07,3.62-3.22q1.905-1.725,3.39-3.28c1-1.03,1.5-1.67,1.5-1.9a.752.752,0,0,0-.4-.69,1.9717,1.9717,0,0,0-.98-.23A2.2948,2.2948,0,0,0,361.391,846.2844Zm29.56-35.08c-.54.69-1.19,1.63-1.96,2.82s-1.5,2.44-2.19,3.74c-.69,1.31-1.3,2.55-1.84,3.74a17.1362,17.1362,0,0,0-1.03,2.7q2.07-3.33,3.91-6.5A43.9262,43.9262,0,0,0,390.951,811.2044Z"/><path class="cls-1" d="M463.641,847.8944c.15,0,.36.13.63.4a1.32,1.32,0,0,1,.4.98.9213.9213,0,0,1-.63.86c-.42.19-.83.37-1.21.52a16.0131,16.0131,0,0,1-4.72,2.13,19.987,19.987,0,0,1-5.06.63,13.711,13.711,0,0,1-2.41-.23,13.244,13.244,0,0,0-2.3-.23,2.3093,2.3093,0,0,0-2.3,1.15c-.31.62-.88,1.59-1.73,2.93a38.9575,38.9575,0,0,1-2.93,4.03,28.2812,28.2812,0,0,1-3.51,3.57,5.5547,5.5547,0,0,1-3.45,1.55,2.7949,2.7949,0,0,1-2.24-1.03,7.8586,7.8586,0,0,1-1.38-2.59,15.2033,15.2033,0,0,1-.69-3.34c-.11-1.19-.17-2.24-.17-3.16v-3.11h-.11l-.23-.11c-.38.54-.98,1.36-1.78,2.47q-1.215,1.665-2.65,3.39a22.5374,22.5374,0,0,1-3.05,3.05,4.8653,4.8653,0,0,1-2.99,1.32,2.9166,2.9166,0,0,1-2.59-1.84,8.0237,8.0237,0,0,1-.98-3.8,25.2745,25.2745,0,0,1,.46-4.03,31.1673,31.1673,0,0,1,1.38-5.18,20.3276,20.3276,0,0,1,2.19-4.43,3.5176,3.5176,0,0,1,2.88-1.9,2.3865,2.3865,0,0,1,1.96.86,2.9849,2.9849,0,0,1,.69,1.9,6.1568,6.1568,0,0,1-.92,3.16,12.5556,12.5556,0,0,1-1.73,2.36,7.9517,7.9517,0,0,0-1.96,3.97c-.23,1.42-.46,2.86-.69,4.31h.35a1.4347,1.4347,0,0,0,1.03-.34c.23-.22.46-.46.69-.69a51.6072,51.6072,0,0,0,4.31-4.89c1.34-1.73,2.7-3.43,4.08-5.12.38-.46.82-.98,1.32-1.55a2.0489,2.0489,0,0,1,1.44-.86c.61,0,1.04.38,1.27,1.15a9.7285,9.7285,0,0,1,.34,2.76,35.1659,35.1659,0,0,1-.29,4.43,29.5948,29.5948,0,0,0-.29,3.28v1.44a13.0118,13.0118,0,0,0,.11,1.67,4.592,4.592,0,0,0,.4,1.38.8513.8513,0,0,0,.75.57c.61,0,1.38-.54,2.3-1.61a29.88,29.88,0,0,0,2.7-3.74c.88-1.42,1.69-2.8,2.41-4.14q1.0948-2.01,1.44-2.82a3.8858,3.8858,0,0,0,.4-2.01,5.6949,5.6949,0,0,1,.29-2.13,19.7384,19.7384,0,0,1,1.15-2.82,2.5134,2.5134,0,0,1,2.3-1.67,2.0648,2.0648,0,0,1,1.61.63,2.2393,2.2393,0,0,1,.58,1.55,6.446,6.446,0,0,1-.92,3.22,6.1192,6.1192,0,0,0-.92,2.99q0,.465.63.75a7.3784,7.3784,0,0,0,1.44.46,12.7509,12.7509,0,0,0,1.72.23q.915.06,1.38.06a18.964,18.964,0,0,0,7.94-1.84,5.7491,5.7491,0,0,0,.92-.57A1.7278,1.7278,0,0,1,463.641,847.8944Z"/><path class="cls-1" d="M498.031,795.1044a6.5044,6.5044,0,0,1-.34,2.07,10.4919,10.4919,0,0,1-.8,1.84,142.09,142.09,0,0,1-7.59,13.34,71.8984,71.8984,0,0,1-9.66,11.96,7.823,7.823,0,0,0-1.5,1.96q-3.45,6.555-6.84,13.05t-6.73,13.05a1.3581,1.3581,0,0,0-.34.57,1.1519,1.1519,0,0,0,.23.92c1.99-1.69,4.01-3.41,6.04-5.18a46.2322,46.2322,0,0,1,6.5-4.72,11.4518,11.4518,0,0,1,1.73-.81,5.2033,5.2033,0,0,1,1.84-.34,2.9148,2.9148,0,0,1,1.96.69,2.88,2.88,0,0,1,.81,2.3,11.6018,11.6018,0,0,1-.52,3.51,28.1029,28.1029,0,0,1-1.21,3.22c-.46,1.03-.92,2.07-1.38,3.1a15.6783,15.6783,0,0,0-1.04,3.28,8.8912,8.8912,0,0,0,2.65-.34,8.536,8.536,0,0,0,2.3-1.27c1.76-1.23,3.45-2.45,5.06-3.68s3.26-2.45,4.95-3.68c.31-.23.86-.63,1.67-1.21a3.8715,3.8715,0,0,1,2.13-.86,1.0178,1.0178,0,0,1,1.15,1.15,2.0385,2.0385,0,0,1-.86,1.61c-.57.46-1.02.81-1.32,1.04q-2.4149,1.95-4.89,3.74-2.475,1.785-4.89,3.62a41.3857,41.3857,0,0,1-3.74,2.59,8.8717,8.8717,0,0,1-4.77,1.32,3.4972,3.4972,0,0,1-2.99-1.09,4.4143,4.4143,0,0,1-.81-2.7,11.5991,11.5991,0,0,1,.34-2.7,21.6626,21.6626,0,0,1,.86-2.76c.35-.88.67-1.73.98-2.53.31-.81.58-1.44.81-1.9l-.34-.34q-9.78,7.935-18.98,16.56a16.0605,16.0605,0,0,0-1.21,1.09,2.112,2.112,0,0,1-1.55.63,1.5066,1.5066,0,0,1-1.32-.57,2.1517,2.1517,0,0,1-.4-1.27,8.7008,8.7008,0,0,1,.4-1.5c.27-.84.58-1.72.92-2.64s.67-1.8.98-2.65c.31-.84.5-1.34.58-1.5q6.09-12.99,12.71-25.53,6.615-12.54,13.86-24.96a64.0763,64.0763,0,0,1,3.45-5.52c1.23-1.76,2.49-3.53,3.8-5.29a16.7351,16.7351,0,0,1,1.78-2.24,3.6983,3.6983,0,0,1,2.82-1.32,2.5434,2.5434,0,0,1,2.01.86A3.266,3.266,0,0,1,498.031,795.1044Z"/><path class="cls-1" d="M508.491,852.7244a85.2949,85.2949,0,0,0-7.19,5.41q-3.285,2.76-6.96,5.29a3.3041,3.3041,0,0,1-1.72.57,2.4266,2.4266,0,0,1-1.78-.75,2.7163,2.7163,0,0,1-.75-2.01,6.2229,6.2229,0,0,1,.34-1.96c.23-.69.46-1.3.69-1.84a46.3037,46.3037,0,0,1,2.19-4.26,34.0294,34.0294,0,0,1,3.11-4.54,17.7343,17.7343,0,0,1,3.85-3.57,7.9556,7.9556,0,0,1,4.54-1.44,6.7681,6.7681,0,0,1,3.22.8,9.1716,9.1716,0,0,1,2.59,2.07,13.3259,13.3259,0,0,1,1.9,2.93,14.457,14.457,0,0,1,1.15,3.28,10.0683,10.0683,0,0,0,1.32,3.34,2.47,2.47,0,0,0,2.13,1.03,7.9261,7.9261,0,0,0,3.11-.75,25.1381,25.1381,0,0,0,3.45-1.84c1.15-.73,2.22-1.48,3.22-2.24,1-.77,1.84-1.42,2.53-1.96q.345-.345,1.5-1.38a3.2534,3.2534,0,0,1,2.07-1.03q.81,0,.81.57a2.3153,2.3153,0,0,1-.4,1.21,5.7949,5.7949,0,0,1-.63.86c-.69.61-1.67,1.5-2.93,2.65-1.27,1.15-2.66,2.3-4.2,3.45a33.1182,33.1182,0,0,1-4.89,3.05,10.832,10.832,0,0,1-4.89,1.32,5.1411,5.1411,0,0,1-4.66-2.47A26.8528,26.8528,0,0,1,508.491,852.7244Zm-11.5,4.49a1.1735,1.1735,0,0,0,.57-.46l1.27-.69a2.6314,2.6314,0,0,1,.57-.46l4.83-3.11c.38-.3.79-.59,1.21-.86s.82-.52,1.21-.75a.9179.9179,0,0,0,.46-.69c0-.38-.31-.75-.92-1.09a3.3622,3.3622,0,0,0-1.38-.52,4.1465,4.1465,0,0,0-2.53.98,12.2853,12.2853,0,0,0-2.3,2.36,24.2745,24.2745,0,0,0-1.84,2.82A14.6822,14.6822,0,0,0,496.991,857.2144Z"/><path class="cls-1" d="M556.451,795.7944a2.5759,2.5759,0,0,1,2.42,2.42,7.1308,7.1308,0,0,1-.69,2.19c-.46,1.08-1.06,2.32-1.78,3.74-.73,1.42-1.53,2.91-2.41,4.49-.88,1.57-1.73,3.07-2.53,4.48-.8,1.42-1.51,2.67-2.13,3.74s-1.03,1.8-1.27,2.19h1.27a14.29,14.29,0,0,0,3.1-.34c1-.23,1.99-.42,2.99-.58q4.83-.69,9.72-1.38a70.303,70.303,0,0,1,9.83-.69,14.8586,14.8586,0,0,1,2.07.17,10.9949,10.9949,0,0,1,2.19.57,7.0205,7.0205,0,0,1,1.78.98,1.7945,1.7945,0,0,1,.75,1.5,1.4591,1.4591,0,0,1-.8,1.5,5.33,5.33,0,0,1-2.07.34,20.4371,20.4371,0,0,1-2.93-.23,18.2826,18.2826,0,0,0-2.47-.23q-6.21,0-12.02.46-5.805.465-11.79.69a7.1993,7.1993,0,0,0-2.99.75,4.936,4.936,0,0,0-1.96,2.59q-3.33,8.055-6.73,16.05a129.0837,129.0837,0,0,0-5.69,16.39c-.38,1.3-.73,2.59-1.03,3.85a17.111,17.111,0,0,0-.46,4.08v.34l.12.58v.35a3.5649,3.5649,0,0,0,1.96-.69c.46-.38.92-.77,1.38-1.15a50.2394,50.2394,0,0,0,7.76-7.88q3.39-4.32,7.07-8.45a1.5552,1.5552,0,0,1,1.38-.69q.69,0,.69.81a2.5866,2.5866,0,0,1-.46,1.32c-.31.5-.63,1-.98,1.5a12.6493,12.6493,0,0,1-1.03,1.32c-.34.38-.59.65-.75.8-.69.92-1.77,2.3-3.22,4.14q-2.19,2.76-4.72,5.52a39.79,39.79,0,0,1-5.17,4.77,8.1136,8.1136,0,0,1-4.6,2.01,2.9918,2.9918,0,0,1-2.7-1.84,8.7254,8.7254,0,0,1-.98-4.14,34.5492,34.5492,0,0,1,1.44-8.91q1.44-5.235,3.45-10.81,2.01-5.58,4.2-10.7,2.19-5.115,3.68-8.57a4.4666,4.4666,0,0,0,.4-.75,2.39,2.39,0,0,0,.17-.98v-.34a10.0521,10.0521,0,0,0-1.72-.23,38.86,38.86,0,0,0-4.66.29,38.86,38.86,0,0,1-4.66.29h-3.11c-1.38,0-2.84-.04-4.37-.12a23.967,23.967,0,0,1-4.26-.57,9.7557,9.7557,0,0,1-3.22-1.32,2.7264,2.7264,0,0,1-1.27-2.36,2.2314,2.2314,0,0,1,.57-1.55,1.8091,1.8091,0,0,1,1.38-.63,1.988,1.988,0,0,1,1.38.69,9.9406,9.9406,0,0,0,5.64,2.82,46.3347,46.3347,0,0,0,7.02.52h6.9a17.5364,17.5364,0,0,0,4.26-.46,4.0821,4.0821,0,0,0,2.76-2.42q2.07-4.485,4.26-8.97a85.2279,85.2279,0,0,1,4.83-8.63,11.4238,11.4238,0,0,0,.8-1.26,10.6125,10.6125,0,0,1,1.09-1.55,7.154,7.154,0,0,1,1.38-1.27A2.4649,2.4649,0,0,1,556.451,795.7944Z"/><path class="cls-1" d="M558.751,902.8744a8.118,8.118,0,0,1,1.03-3.45,47.4708,47.4708,0,0,1,2.59-4.49c1.03-1.61,2.21-3.26,3.51-4.95s2.59-3.28,3.85-4.77c1.27-1.5,2.43-2.86,3.51-4.08,1.07-1.23,1.92-2.15,2.53-2.76q2.64-2.76,5.18-5.69a21.3859,21.3859,0,0,0,3.91-6.73c.77-2.15,1.51-4.27,2.24-6.38s1.4-4.27,2.01-6.5a3.8233,3.8233,0,0,0,.23-1.03,1.86,1.86,0,0,0-.23-.69,4.774,4.774,0,0,0-1.55,1.21c-.42.5-.83.98-1.21,1.44-1.53,1.69-3.13,3.43-4.77,5.23a18.0118,18.0118,0,0,1-5.69,4.2,4.0663,4.0663,0,0,1-1.61.35,3.2,3.2,0,0,1-2.76-1.5,5.9229,5.9229,0,0,1-1.03-3.45,16.0486,16.0486,0,0,1,1.44-6.73,28.6324,28.6324,0,0,1,3.39-5.69,9.446,9.446,0,0,1,1.27-1.26,2.6078,2.6078,0,0,1,1.72-.69,2.13,2.13,0,0,1,1.61.75,2.2894,2.2894,0,0,1,.69,1.55,2.954,2.954,0,0,1-.63,1.78c-.42.57-.79,1.09-1.09,1.55a22.8039,22.8039,0,0,0-2.36,4.26,16.32,16.32,0,0,0-1.21,5.06,27.5873,27.5873,0,0,0,7.53-5.46q3.165-3.285,6.27-6.61a2.952,2.952,0,0,1,2.19-1.15,2.2907,2.2907,0,0,1,2.01,1.15,5.3869,5.3869,0,0,1,.75,2.99,15.83,15.83,0,0,1-.23,2.53q-.225,1.38-.57,2.7c-.23.88-.46,1.71-.69,2.47a14.3371,14.3371,0,0,0-.46,1.96h.23q6.09-5.985,12.31-11.62a1.5372,1.5372,0,0,1,1.15-.46.8158.8158,0,0,1,.92.92,1.7874,1.7874,0,0,1-.57,1.27q-2.76,2.655-5.58,5.35-2.82,2.7-5.41,5.58a75.4276,75.4276,0,0,0-4.89,6.04,35.1134,35.1134,0,0,0-3.91,6.96c-.38,1-1.07,2.47-2.07,4.43s-2.15,4.14-3.45,6.56-2.74,4.89-4.31,7.42-3.16,4.85-4.77,6.96a32.2473,32.2473,0,0,1-4.83,5.18,7.2443,7.2443,0,0,1-4.48,2.01,3.702,3.702,0,0,1-2.53-1.03A3.5056,3.5056,0,0,1,558.751,902.8744Zm3.22-1.04a14.39,14.39,0,0,0,4.49-3.45,50.0085,50.0085,0,0,0,4.83-5.92,59.4385,59.4385,0,0,0,4.08-6.73,22.2893,22.2893,0,0,0,2.24-5.87c-1.53,1.76-3.07,3.51-4.6,5.23s-2.99,3.47-4.37,5.23a57.3485,57.3485,0,0,0-3.8,5.46A33.93,33.93,0,0,0,561.971,901.8345Z"/><path class="cls-1" d="M597.401,859.2844a14.5289,14.5289,0,0,1,.92-4.43,29.454,29.454,0,0,1,2.47-5.35,20.8977,20.8977,0,0,1,3.51-4.54,5.8071,5.8071,0,0,1,4.03-1.9q2.07,0,4.95,3.57,3.45,4.485,8.05,4.49a10.6933,10.6933,0,0,0,3.57-.57,6.6045,6.6045,0,0,0,1.32-.58c.58-.31,1.19-.61,1.84-.92s1.28-.58,1.9-.81a4.6546,4.6546,0,0,1,1.61-.34c.61,0,.92.23.92.69,0,.69-.52,1.38-1.55,2.07a22.9057,22.9057,0,0,1-3.57,1.9,33.5216,33.5216,0,0,1-4.03,1.44,11.9632,11.9632,0,0,1-3.05.58,11.554,11.554,0,0,1-3.97-.69c-1.26-.46-2.44-.92-3.51-1.38-.46,1.08-1.02,2.26-1.67,3.57a22.9208,22.9208,0,0,1-2.3,3.68,14.2906,14.2906,0,0,1-2.99,2.93,6.1928,6.1928,0,0,1-3.74,1.21,4.4844,4.4844,0,0,1-3.39-1.38A4.5864,4.5864,0,0,1,597.401,859.2844Zm5.06.23a7.4076,7.4076,0,0,0,3.39-2.36,22.7317,22.7317,0,0,0,2.13-3.28c.38-.69.75-1.38,1.09-2.07a5.1158,5.1158,0,0,0,.52-2.3,3.3745,3.3745,0,0,0-.11-.86c-.08-.27-.19-.59-.34-.98a10.2552,10.2552,0,0,0-2.47,1.95,14.1484,14.1484,0,0,0-2.13,2.88,17.737,17.737,0,0,0-1.5,3.45A11.7746,11.7746,0,0,0,602.461,859.5144Z"/><path class="cls-1" d="M632.711,843.9844a2.1322,2.1322,0,0,1,1.73.69,2.3076,2.3076,0,0,1,.57,1.5,4.7609,4.7609,0,0,1-.46,1.95c-.31.69-.57,1.31-.8,1.84-.62,1.31-1.21,2.65-1.78,4.03a32.82,32.82,0,0,0-1.44,4.26,4.9943,4.9943,0,0,1-.29.98,2.39,2.39,0,0,0-.17.98,4.3334,4.3334,0,0,0,.11,1.15,18.8643,18.8643,0,0,0,2.3-1.72,24.167,24.167,0,0,0,1.96-1.96c1.46-1.61,2.89-3.22,4.31-4.83s2.82-3.22,4.2-4.83c.38-.38.75-.77,1.09-1.15a1.838,1.838,0,0,1,1.44-.58,2.1306,2.1306,0,0,1,1.61.75,2.5348,2.5348,0,0,1,.69,1.78,4.32,4.32,0,0,1-.4,1.73c-.27.61-.57,1.26-.92,1.95s-.67,1.42-.98,2.19a6.0884,6.0884,0,0,0-.46,2.3c0,1.53.61,2.3,1.84,2.3a5.2427,5.2427,0,0,0,1.84-.46,20.4549,20.4549,0,0,0,5.81-4.14c1.65-1.69,3.28-3.37,4.89-5.06.07-.07.4-.38.98-.92a2.3692,2.3692,0,0,1,1.44-.81c.31,0,.46.27.46.81,0,.69-.59,1.72-1.78,3.1a57.6039,57.6039,0,0,1-4.03,4.2c-1.5,1.42-2.91,2.68-4.26,3.8a30.66,30.66,0,0,1-2.59,2.01,7.4384,7.4384,0,0,1-3.79,1.15,4.3673,4.3673,0,0,1-3.68-1.84,8.1141,8.1141,0,0,1-1.61-4.14,3.4487,3.4487,0,0,1,.06-.57,3.4531,3.4531,0,0,0,.06-.58,1.2231,1.2231,0,0,0-.46-.8c-1.53,1.84-3.07,3.78-4.6,5.81a21.0166,21.0166,0,0,1-5.29,5,4.1309,4.1309,0,0,1-2.41.81,2.4486,2.4486,0,0,1-2.13-1.09,5.33,5.33,0,0,1-.75-3.05,23.0588,23.0588,0,0,1,1.55-8.45c1.03-2.64,2.09-5.12,3.16-7.42a6.75,6.75,0,0,1,1.21-1.84A2.2482,2.2482,0,0,1,632.711,843.9844Z"/><path class="cls-1" d="M671.811,867.7944c-1.23,0-1.84-.65-1.84-1.96,0-1.23.73-1.84,2.19-1.84h.81a13.14,13.14,0,0,0,4.6-.81q2.175-.81,4.37-1.84a2.443,2.443,0,0,0,1.38-1.32,7.2024,7.2024,0,0,0,.23-2.01v-1.03a43.36,43.36,0,0,1,.69-7.88,14.2908,14.2908,0,0,1,2.65-6.27q.57-.57,1.44-1.32a2.8254,2.8254,0,0,1,1.9-.75,2.4171,2.4171,0,0,1,1.9.86,2.8254,2.8254,0,0,1,.75,1.9,5.2426,5.2426,0,0,1-.69,2.53,5.3465,5.3465,0,0,1-1.5,1.84,5.6248,5.6248,0,0,0-1.96,2.93,17.49,17.49,0,0,0-.35,3.74v2.53a21.5742,21.5742,0,0,0,3.91-2.36q1.7252-1.32,3.57-2.59a21.7086,21.7086,0,0,0,2.7-2.13,12.5013,12.5013,0,0,1,2.93-2.01,1.2192,1.2192,0,0,1,.58-.12c.69,0,1.03.31,1.03.92,0,.46-.59,1.21-1.78,2.24s-2.53,2.13-4.03,3.28-2.97,2.21-4.43,3.16c-1.46.96-2.41,1.59-2.88,1.9a3.5629,3.5629,0,0,0-1.73,3.1v1.38a16.3542,16.3542,0,0,1-.35,3.34,15.3768,15.3768,0,0,1-.98,3.16,7.19,7.19,0,0,1-1.61,2.36,3.19,3.19,0,0,1-2.24.92,7.001,7.001,0,0,1-4.2-1.61q-2.13-1.605-3.74-2.99a5.3829,5.3829,0,0,0-1.21-.92,3.2,3.2,0,0,0-1.55-.34h-.56Zm11.85-2.07a2.1128,2.1128,0,0,0-.57-1.72c-.84.38-1.69.79-2.53,1.21s-1.8.9-2.88,1.44c.69.54,1.38,1.05,2.07,1.55a3.3781,3.3781,0,0,0,1.95.75,1.5639,1.5639,0,0,0,1.5-.98A5.383,5.383,0,0,0,683.661,865.7244Z"/><path class="cls-1" d="M700.911,857.3244a2.51,2.51,0,0,0,1.21,2.47,6.0147,6.0147,0,0,0,2.82.63,14.4706,14.4706,0,0,0,4.49-.75,35.0827,35.0827,0,0,0,4.54-1.84,33.7647,33.7647,0,0,0,4.26-2.47q2.01-1.38,3.74-2.53c.23-.23.63-.61,1.21-1.15.57-.54,1.19-1.09,1.84-1.67a19.7081,19.7081,0,0,1,1.9-1.5,2.9786,2.9786,0,0,1,1.61-.63q.81,0,.81.69a2.224,2.224,0,0,1-.29,1.09,3.9191,3.9191,0,0,1-.52.75,76.5661,76.5661,0,0,1-9.78,7.71,42.2158,42.2158,0,0,1-11.27,5.18,12.2618,12.2618,0,0,1-3.34.57,7.8787,7.8787,0,0,1-5.46-1.9,6.5036,6.5036,0,0,1-2.13-5.12,13.43,13.43,0,0,1,2.53-8.17,22.0652,22.0652,0,0,1,5.98-5.64,9.7649,9.7649,0,0,1,1.44-.69,4.7707,4.7707,0,0,1,1.78-.34,3.1347,3.1347,0,0,1,2.19.86,2.8151,2.8151,0,0,1,.92,2.13,2.6527,2.6527,0,0,1-.12.75c-.08.27-.15.52-.23.75a12.9921,12.9921,0,0,1-3.33,5.41,17.8132,17.8132,0,0,1-5.18,3.68c-.39.23-.75.44-1.09.63A1.1441,1.1441,0,0,0,700.911,857.3244Zm5.29-9.66a19.8751,19.8751,0,0,0-2.13,1.95,6.4,6.4,0,0,0-1.44,2.88,15.935,15.935,0,0,0,2.53-2.41A7.9826,7.9826,0,0,0,706.201,847.6644Z"/><path class="cls-1" d="M727.021,857.3244a2.51,2.51,0,0,0,1.21,2.47,6.0147,6.0147,0,0,0,2.82.63,14.4711,14.4711,0,0,0,4.49-.75,35.0827,35.0827,0,0,0,4.54-1.84,33.7647,33.7647,0,0,0,4.26-2.47q2.01-1.38,3.74-2.53c.23-.23.63-.61,1.21-1.15.57-.54,1.19-1.09,1.84-1.67a19.7081,19.7081,0,0,1,1.9-1.5,2.9783,2.9783,0,0,1,1.61-.63q.81,0,.81.69a2.2239,2.2239,0,0,1-.29,1.09,3.9142,3.9142,0,0,1-.52.75,76.5583,76.5583,0,0,1-9.78,7.71,42.2158,42.2158,0,0,1-11.27,5.18,12.2618,12.2618,0,0,1-3.34.57,7.8791,7.8791,0,0,1-5.46-1.9,6.504,6.504,0,0,1-2.13-5.12,13.43,13.43,0,0,1,2.53-8.17,22.0663,22.0663,0,0,1,5.98-5.64,9.7715,9.7715,0,0,1,1.44-.69,4.7707,4.7707,0,0,1,1.78-.34,3.1347,3.1347,0,0,1,2.19.86,2.8151,2.8151,0,0,1,.92,2.13,2.6527,2.6527,0,0,1-.12.75c-.08.27-.15.52-.23.75a12.9921,12.9921,0,0,1-3.33,5.41,17.8145,17.8145,0,0,1-5.18,3.68c-.39.23-.75.44-1.09.63A1.1441,1.1441,0,0,0,727.021,857.3244Zm5.29-9.66a19.8655,19.8655,0,0,0-2.13,1.95,6.4,6.4,0,0,0-1.44,2.88,15.94,15.94,0,0,0,2.53-2.41A7.9826,7.9826,0,0,0,732.311,847.6644Z"/><path class="cls-1" d="M70.771,680.0944h16.28v86.45H76.941v.12l-45.38-58.33v58.21H15.281v-86.33h13.2l42.3,53.52v-53.64Z"/><path class="cls-1" d="M102.091,766.5444v-86.33h16.16v86.33Z"/><path class="cls-1" d="M133.531,766.5444v-86.2h62.03v15.66h-45.75v23.55h43.29v15.04h-43.29v31.94h-16.28Z"/><path class="cls-1" d="M232.931,695.0144h-27.38v-14.8h71.03v14.8h-27.37v71.53h-16.28Z"/><path class="cls-1" d="M328.011,715.8544l22.94-35.64h19.61v.74l-34.41,49.95v35.64h-16.28v-35.64l-33.17-49.95v-.74h19.36Z"/><path class="cls-1" d="M402.741,766.5444v-86.33h16.16v86.33Z"/><path class="cls-1" d="M490.911,680.0944h16.28v86.45h-10.11v.12l-45.38-58.33v58.21h-16.28v-86.33h13.2l42.3,53.52v-53.64Z"/><path class="cls-1" d="M544.431,695.0144h-27.38v-14.8h71.03v14.8h-27.37v71.53h-16.28Z"/><path class="cls-1" d="M662.331,766.5444h-64.62v-86.33h64.62v15.79h-48.47v19.86h46.74v15.17h-46.74v19.48h48.47Z"/><path class="cls-1" d="M751.481,766.5444h-19.36l-25.16-28.86h-15.66v28.86h-16.28v-86.45c13.69,0,27.38.12,41.07.12,20.35.12,31.08,13.69,31.08,28.61,0,11.84-5.43,23.8-21.83,27.13l26.14,29.47v1.12Zm-60.18-71.16v27.62h24.79c10.36,0,14.8-6.91,14.8-13.81,0-6.91-4.56-13.81-14.8-13.81Z"/><path class="cls-1" d="M758.261,766.5444v-86.33h16.15v86.33Z"/><path class="cls-1" d="M877.1509,723.8744c-.25,22.32-13.94,44.64-44.27,44.64-30.34,0-44.4-21.83-44.4-44.52s14.55-45.51,44.4-45.51C862.591,678.4944,877.391,701.3044,877.1509,723.8744Zm-72.64.37c.37,14.18,8.02,29.35,28.36,29.35,20.35,0,27.99-15.29,28.24-29.47.25-14.55-7.89-30.83-28.24-30.83S804.141,709.6944,804.511,724.2444Z"/><path class="cls-1" d="M487.001,84.3444c-92.39-27.98-182.01,35.97-183.05,132.58-1.55,145.12-1.33,290.25-1.83,435.38a2.5031,2.5031,0,0,0,2.5,2.51h11.54a2.49,2.49,0,0,0,2.5-2.51c-.23-72.84-.16-145.69-.16-218.53l2.27-224.02c-1.41-70.07,85.66-144.63,172.94-104.5,48.65,22.37,76.75,60.11,76.65,116.62-.24,143.48.57,286.96.97,430.45a2.5009,2.5009,0,0,0,2.5,2.5h12.48a2.4989,2.4989,0,0,0,2.5-2.52c-.88-144.4-.49-288.81-1.56-433.21C586.781,153.9744,547.191,102.5744,487.001,84.3444Z"/><path class="cls-1" d="M553.671,213.7344c-1.78-57.29-50.45-103.46-108.16-104.63-60.42-1.22-110.66,55.43-110.33,105.02.96,146.05-.82,292.12-1.52,438.18v.03a2.486,2.486,0,0,0,2.5,2.49h12.29a2.5031,2.5031,0,0,0,2.5-2.51q-.3-202.575.42-405.16a340.2246,340.2246,0,0,1,2.5-41.49c4.9-39,34.88-71.2,71.39-77.66,43.07-7.62,83.61,10.87,102.83,46.76a78.21,78.21,0,0,1,9.39,37.97l2.4,224.04q0,107.775-.01,215.54a2.5009,2.5009,0,0,0,2.5,2.5h11.41a2.4967,2.4967,0,0,0,2.5-2.51C555.671,506.1144,558.201,359.9044,553.671,213.7344Z"/><path class="cls-1" d="M456.701,141.5244c-36.87-5.81-74.62,17.51-87.46,53.51-3.67,10.29-3.77,20.76-3.81,31.29q-.84,212.985-1.74,425.98a2.499,2.499,0,0,0,2.5,2.52h11.96a2.5118,2.5118,0,0,0,2.51-2.48c1.19-143.76,1.1-287.53,1.5-431.29.1-36.95,25.51-62.95,61.53-62.92,38.24.03,63.19,24.88,63.3,62.91.42,143.76,1.23,287.52.89,431.28a2.51,2.51,0,0,0,2.5,2.51h12.43a2.4967,2.4967,0,0,0,2.5-2.51q-.375-216.2251-.9-432.44C524.261,179.7144,495.821,147.6944,456.701,141.5244Z"/><path class="cls-1" d="M455.701,45.7144c-86.34-5.66-165.98,55.39-183.01,140.59-1.41,7.04-1.32,14.45-1.33,21.69q-.135,113.01-.05,226.03l-1.55,218.28a2.499,2.499,0,0,0,2.5,2.52h12.71a2.5138,2.5138,0,0,0,2.51-2.52c-.62-146.17-3.12-292.35.23-438.5,1.63-70.9,47.52-127.09,115.93-145.64,99.88-27.08,199.16,48.58,199.19,151.81l1.61,216.06c0,72.09.18,144.18-.27,216.27a2.499,2.499,0,0,0,2.5,2.52h10.83a2.4967,2.4967,0,0,0,2.5-2.51q-.42-216.12-.79-432.24C619.091,128.4444,547.241,51.7144,455.701,45.7144Z"/><path class="cls-1" d="M256.441,215.6044c1.64-128.39,129.89-216.5,251.41-174.77,73.27,25.16,126.26,99.54,126.39,176.97q.375,217.26.97,434.51a2.5009,2.5009,0,0,0,2.5,2.5h10.65a2.4987,2.4987,0,0,0,2.5-2.49q1.035-152.7451,1.05-305.51c-.07-51.51,2.84-103.24-3.46-154.48-13.12-106.65-109.09-184.81-216.93-178.19-106.58,6.54-190.19,93.66-191.28,200.49-.75,74-.14,148.01-.14,222.01h.08c0,71.89-.32,143.79.08,215.68a2.5074,2.5074,0,0,0,2.51,2.49h9.49a2.5009,2.5009,0,0,0,2.5-2.5C255.141,506.7444,254.591,361.1644,256.441,215.6044Z"/></svg>